G04 #@! TF.GenerationSoftware,KiCad,Pcbnew,5.0.2-bee76a0~70~ubuntu18.04.1*
G04 #@! TF.CreationDate,2019-10-09T06:24:17-07:00*
G04 #@! TF.ProjectId,kazatsky,6b617a61-7473-46b7-992e-6b696361645f,rev?*
G04 #@! TF.SameCoordinates,PX8e18f40PY6516e80*
G04 #@! TF.FileFunction,Copper,L1,Top*
G04 #@! TF.FilePolarity,Positive*
%FSLAX46Y46*%
G04 Gerber Fmt 4.6, Leading zero omitted, Abs format (unit mm)*
G04 Created by KiCad (PCBNEW 5.0.2-bee76a0~70~ubuntu18.04.1) date Wed 09 Oct 2019 06:24:17 AM PDT*
%MOMM*%
%LPD*%
G01*
G04 APERTURE LIST*
G04 #@! TA.AperFunction,NonConductor*
%ADD10C,0.300000*%
G04 #@! TD*
G04 #@! TA.AperFunction,SMDPad,CuDef*
%ADD11R,1.790000X1.300000*%
G04 #@! TD*
G04 #@! TA.AperFunction,ComponentPad*
%ADD12R,2.200000X2.200000*%
G04 #@! TD*
G04 #@! TA.AperFunction,SMDPad,CuDef*
%ADD13C,0.550000*%
G04 #@! TD*
G04 #@! TA.AperFunction,Conductor*
%ADD14C,0.100000*%
G04 #@! TD*
G04 #@! TA.AperFunction,SMDPad,CuDef*
%ADD15R,1.300000X0.800000*%
G04 #@! TD*
G04 #@! TA.AperFunction,ComponentPad*
%ADD16R,3.000000X3.000000*%
G04 #@! TD*
G04 #@! TA.AperFunction,ComponentPad*
%ADD17C,3.000000*%
G04 #@! TD*
G04 #@! TA.AperFunction,SMDPad,CuDef*
%ADD18R,1.300000X1.790000*%
G04 #@! TD*
G04 #@! TA.AperFunction,SMDPad,CuDef*
%ADD19R,2.550000X2.700000*%
G04 #@! TD*
G04 #@! TA.AperFunction,SMDPad,CuDef*
%ADD20R,2.300000X2.700000*%
G04 #@! TD*
G04 #@! TA.AperFunction,ComponentPad*
%ADD21C,2.500000*%
G04 #@! TD*
G04 #@! TA.AperFunction,ComponentPad*
%ADD22O,2.000000X3.000000*%
G04 #@! TD*
G04 #@! TA.AperFunction,SMDPad,CuDef*
%ADD23R,0.398780X3.000000*%
G04 #@! TD*
G04 #@! TA.AperFunction,ViaPad*
%ADD24C,5.000000*%
G04 #@! TD*
G04 #@! TA.AperFunction,ViaPad*
%ADD25C,2.000000*%
G04 #@! TD*
G04 #@! TA.AperFunction,Conductor*
%ADD26C,0.400000*%
G04 #@! TD*
G04 #@! TA.AperFunction,Conductor*
%ADD27C,1.000000*%
G04 #@! TD*
G04 #@! TA.AperFunction,Conductor*
%ADD28C,0.300000*%
G04 #@! TD*
G04 APERTURE END LIST*
D10*
X63421428Y12414286D02*
X63350000Y12485715D01*
X63278571Y12628572D01*
X63278571Y12985715D01*
X63350000Y13128572D01*
X63421428Y13200000D01*
X63564285Y13271429D01*
X63707142Y13271429D01*
X63921428Y13200000D01*
X64778571Y12342858D01*
X64778571Y13271429D01*
X63278571Y14200000D02*
X63278571Y14342858D01*
X63350000Y14485715D01*
X63421428Y14557143D01*
X63564285Y14628572D01*
X63850000Y14700000D01*
X64207142Y14700000D01*
X64492857Y14628572D01*
X64635714Y14557143D01*
X64707142Y14485715D01*
X64778571Y14342858D01*
X64778571Y14200000D01*
X64707142Y14057143D01*
X64635714Y13985715D01*
X64492857Y13914286D01*
X64207142Y13842858D01*
X63850000Y13842858D01*
X63564285Y13914286D01*
X63421428Y13985715D01*
X63350000Y14057143D01*
X63278571Y14200000D01*
X64778571Y16128572D02*
X64778571Y15271429D01*
X64778571Y15700000D02*
X63278571Y15700000D01*
X63492857Y15557143D01*
X63635714Y15414286D01*
X63707142Y15271429D01*
X64778571Y16842858D02*
X64778571Y17128572D01*
X64707142Y17271429D01*
X64635714Y17342858D01*
X64421428Y17485715D01*
X64135714Y17557143D01*
X63564285Y17557143D01*
X63421428Y17485715D01*
X63350000Y17414286D01*
X63278571Y17271429D01*
X63278571Y16985715D01*
X63350000Y16842858D01*
X63421428Y16771429D01*
X63564285Y16700000D01*
X63921428Y16700000D01*
X64064285Y16771429D01*
X64135714Y16842858D01*
X64207142Y16985715D01*
X64207142Y17271429D01*
X64135714Y17414286D01*
X64064285Y17485715D01*
X63921428Y17557143D01*
X64207142Y18200000D02*
X64207142Y19342858D01*
X64778571Y20842858D02*
X64778571Y19985715D01*
X64778571Y20414286D02*
X63278571Y20414286D01*
X63492857Y20271429D01*
X63635714Y20128572D01*
X63707142Y19985715D01*
X63278571Y21771429D02*
X63278571Y21914286D01*
X63350000Y22057143D01*
X63421428Y22128572D01*
X63564285Y22200000D01*
X63850000Y22271429D01*
X64207142Y22271429D01*
X64492857Y22200000D01*
X64635714Y22128572D01*
X64707142Y22057143D01*
X64778571Y21914286D01*
X64778571Y21771429D01*
X64707142Y21628572D01*
X64635714Y21557143D01*
X64492857Y21485715D01*
X64207142Y21414286D01*
X63850000Y21414286D01*
X63564285Y21485715D01*
X63421428Y21557143D01*
X63350000Y21628572D01*
X63278571Y21771429D01*
X64207142Y22914286D02*
X64207142Y24057143D01*
X63278571Y25057143D02*
X63278571Y25200000D01*
X63350000Y25342858D01*
X63421428Y25414286D01*
X63564285Y25485715D01*
X63850000Y25557143D01*
X64207142Y25557143D01*
X64492857Y25485715D01*
X64635714Y25414286D01*
X64707142Y25342858D01*
X64778571Y25200000D01*
X64778571Y25057143D01*
X64707142Y24914286D01*
X64635714Y24842858D01*
X64492857Y24771429D01*
X64207142Y24700000D01*
X63850000Y24700000D01*
X63564285Y24771429D01*
X63421428Y24842858D01*
X63350000Y24914286D01*
X63278571Y25057143D01*
X63278571Y26057143D02*
X63278571Y27057143D01*
X64778571Y26414286D01*
D11*
G04 #@! TO.P,R4,1*
G04 #@! TO.N,VMOT*
X32000000Y29000000D03*
G04 #@! TO.P,R4,2*
G04 #@! TO.N,+VDC*
X34000000Y29000000D03*
G04 #@! TD*
G04 #@! TO.P,R3,2*
G04 #@! TO.N,VMOT*
X32000000Y27000000D03*
G04 #@! TO.P,R3,1*
G04 #@! TO.N,GND*
X34000000Y27000000D03*
G04 #@! TD*
D12*
G04 #@! TO.P,U1,1*
G04 #@! TO.N,+VDC*
X53000000Y26000000D03*
G04 #@! TO.P,U1,2*
G04 #@! TO.N,GND*
X55540000Y26000000D03*
G04 #@! TO.P,U1,3*
G04 #@! TO.N,+5V*
X58080000Y26000000D03*
G04 #@! TD*
G04 #@! TO.P,J4,1*
G04 #@! TO.N,GND*
X8700000Y3300000D03*
G04 #@! TO.P,J4,2*
G04 #@! TO.N,+5V*
X11240000Y3300000D03*
G04 #@! TO.P,J4,3*
G04 #@! TO.N,Net-(J4-Pad3)*
X8700000Y5840000D03*
G04 #@! TO.P,J4,4*
G04 #@! TO.N,Net-(J4-Pad4)*
X11240000Y5840000D03*
G04 #@! TO.P,J4,5*
G04 #@! TO.N,L_EN*
X8700000Y8380000D03*
G04 #@! TO.P,J4,6*
G04 #@! TO.N,R_EN*
X11240000Y8380000D03*
G04 #@! TO.P,J4,7*
G04 #@! TO.N,L_PWM*
X8700000Y10920000D03*
G04 #@! TO.P,J4,8*
G04 #@! TO.N,R_PWM*
X11240000Y10920000D03*
G04 #@! TD*
G04 #@! TO.P,J5,1*
G04 #@! TO.N,MISO*
X19600000Y7300000D03*
G04 #@! TO.P,J5,2*
G04 #@! TO.N,+5V*
X19600000Y4760000D03*
G04 #@! TO.P,J5,3*
G04 #@! TO.N,SCK*
X22140000Y7300000D03*
G04 #@! TO.P,J5,4*
G04 #@! TO.N,MOSI*
X22140000Y4760000D03*
G04 #@! TO.P,J5,5*
G04 #@! TO.N,USB_RESET*
X24680000Y7300000D03*
G04 #@! TO.P,J5,6*
G04 #@! TO.N,GND*
X24680000Y4760000D03*
G04 #@! TD*
D13*
G04 #@! TO.P,U2,1*
G04 #@! TO.N,CTRL_UP*
X20974695Y23985103D03*
D14*
G04 #@! TD*
G04 #@! TO.N,CTRL_UP*
G04 #@! TO.C,U2*
G36*
X20214555Y24356334D02*
X20603464Y24745243D01*
X21734835Y23613872D01*
X21345926Y23224963D01*
X20214555Y24356334D01*
X20214555Y24356334D01*
G37*
D13*
G04 #@! TO.P,U2,2*
G04 #@! TO.N,CTRL_DOWN*
X20409010Y23419417D03*
D14*
G04 #@! TD*
G04 #@! TO.N,CTRL_DOWN*
G04 #@! TO.C,U2*
G36*
X19648870Y23790648D02*
X20037779Y24179557D01*
X21169150Y23048186D01*
X20780241Y22659277D01*
X19648870Y23790648D01*
X19648870Y23790648D01*
G37*
D13*
G04 #@! TO.P,U2,3*
G04 #@! TO.N,Net-(U2-Pad3)*
X19843324Y22853732D03*
D14*
G04 #@! TD*
G04 #@! TO.N,Net-(U2-Pad3)*
G04 #@! TO.C,U2*
G36*
X19083184Y23224963D02*
X19472093Y23613872D01*
X20603464Y22482501D01*
X20214555Y22093592D01*
X19083184Y23224963D01*
X19083184Y23224963D01*
G37*
D13*
G04 #@! TO.P,U2,4*
G04 #@! TO.N,+5V*
X19277639Y22288047D03*
D14*
G04 #@! TD*
G04 #@! TO.N,+5V*
G04 #@! TO.C,U2*
G36*
X18517499Y22659278D02*
X18906408Y23048187D01*
X20037779Y21916816D01*
X19648870Y21527907D01*
X18517499Y22659278D01*
X18517499Y22659278D01*
G37*
D13*
G04 #@! TO.P,U2,5*
G04 #@! TO.N,GND*
X18711953Y21722361D03*
D14*
G04 #@! TD*
G04 #@! TO.N,GND*
G04 #@! TO.C,U2*
G36*
X17951813Y22093592D02*
X18340722Y22482501D01*
X19472093Y21351130D01*
X19083184Y20962221D01*
X17951813Y22093592D01*
X17951813Y22093592D01*
G37*
D13*
G04 #@! TO.P,U2,6*
G04 #@! TO.N,Net-(U2-Pad6)*
X18146268Y21156676D03*
D14*
G04 #@! TD*
G04 #@! TO.N,Net-(U2-Pad6)*
G04 #@! TO.C,U2*
G36*
X17386128Y21527907D02*
X17775037Y21916816D01*
X18906408Y20785445D01*
X18517499Y20396536D01*
X17386128Y21527907D01*
X17386128Y21527907D01*
G37*
D13*
G04 #@! TO.P,U2,7*
G04 #@! TO.N,Net-(C5-Pad2)*
X17580583Y20590990D03*
D14*
G04 #@! TD*
G04 #@! TO.N,Net-(C5-Pad2)*
G04 #@! TO.C,U2*
G36*
X16820443Y20962221D02*
X17209352Y21351130D01*
X18340723Y20219759D01*
X17951814Y19830850D01*
X16820443Y20962221D01*
X16820443Y20962221D01*
G37*
D13*
G04 #@! TO.P,U2,8*
G04 #@! TO.N,Net-(C6-Pad2)*
X17014897Y20025305D03*
D14*
G04 #@! TD*
G04 #@! TO.N,Net-(C6-Pad2)*
G04 #@! TO.C,U2*
G36*
X16254757Y20396536D02*
X16643666Y20785445D01*
X17775037Y19654074D01*
X17386128Y19265165D01*
X16254757Y20396536D01*
X16254757Y20396536D01*
G37*
D13*
G04 #@! TO.P,U2,9*
G04 #@! TO.N,L_PWM*
X17014897Y17974695D03*
D14*
G04 #@! TD*
G04 #@! TO.N,L_PWM*
G04 #@! TO.C,U2*
G36*
X16643666Y17214555D02*
X16254757Y17603464D01*
X17386128Y18734835D01*
X17775037Y18345926D01*
X16643666Y17214555D01*
X16643666Y17214555D01*
G37*
D13*
G04 #@! TO.P,U2,10*
G04 #@! TO.N,R_PWM*
X17580583Y17409010D03*
D14*
G04 #@! TD*
G04 #@! TO.N,R_PWM*
G04 #@! TO.C,U2*
G36*
X17209352Y16648870D02*
X16820443Y17037779D01*
X17951814Y18169150D01*
X18340723Y17780241D01*
X17209352Y16648870D01*
X17209352Y16648870D01*
G37*
D13*
G04 #@! TO.P,U2,11*
G04 #@! TO.N,L_EN*
X18146268Y16843324D03*
D14*
G04 #@! TD*
G04 #@! TO.N,L_EN*
G04 #@! TO.C,U2*
G36*
X17775037Y16083184D02*
X17386128Y16472093D01*
X18517499Y17603464D01*
X18906408Y17214555D01*
X17775037Y16083184D01*
X17775037Y16083184D01*
G37*
D13*
G04 #@! TO.P,U2,12*
G04 #@! TO.N,Net-(U2-Pad12)*
X18711953Y16277639D03*
D14*
G04 #@! TD*
G04 #@! TO.N,Net-(U2-Pad12)*
G04 #@! TO.C,U2*
G36*
X18340722Y15517499D02*
X17951813Y15906408D01*
X19083184Y17037779D01*
X19472093Y16648870D01*
X18340722Y15517499D01*
X18340722Y15517499D01*
G37*
D13*
G04 #@! TO.P,U2,13*
G04 #@! TO.N,R_EN*
X19277639Y15711953D03*
D14*
G04 #@! TD*
G04 #@! TO.N,R_EN*
G04 #@! TO.C,U2*
G36*
X18906408Y14951813D02*
X18517499Y15340722D01*
X19648870Y16472093D01*
X20037779Y16083184D01*
X18906408Y14951813D01*
X18906408Y14951813D01*
G37*
D13*
G04 #@! TO.P,U2,14*
G04 #@! TO.N,Net-(U2-Pad14)*
X19843324Y15146268D03*
D14*
G04 #@! TD*
G04 #@! TO.N,Net-(U2-Pad14)*
G04 #@! TO.C,U2*
G36*
X19472093Y14386128D02*
X19083184Y14775037D01*
X20214555Y15906408D01*
X20603464Y15517499D01*
X19472093Y14386128D01*
X19472093Y14386128D01*
G37*
D13*
G04 #@! TO.P,U2,15*
G04 #@! TO.N,MOSI*
X20409010Y14580583D03*
D14*
G04 #@! TD*
G04 #@! TO.N,MOSI*
G04 #@! TO.C,U2*
G36*
X20037779Y13820443D02*
X19648870Y14209352D01*
X20780241Y15340723D01*
X21169150Y14951814D01*
X20037779Y13820443D01*
X20037779Y13820443D01*
G37*
D13*
G04 #@! TO.P,U2,16*
G04 #@! TO.N,MISO*
X20974695Y14014897D03*
D14*
G04 #@! TD*
G04 #@! TO.N,MISO*
G04 #@! TO.C,U2*
G36*
X20603464Y13254757D02*
X20214555Y13643666D01*
X21345926Y14775037D01*
X21734835Y14386128D01*
X20603464Y13254757D01*
X20603464Y13254757D01*
G37*
D13*
G04 #@! TO.P,U2,17*
G04 #@! TO.N,SCK*
X23025305Y14014897D03*
D14*
G04 #@! TD*
G04 #@! TO.N,SCK*
G04 #@! TO.C,U2*
G36*
X22265165Y14386128D02*
X22654074Y14775037D01*
X23785445Y13643666D01*
X23396536Y13254757D01*
X22265165Y14386128D01*
X22265165Y14386128D01*
G37*
D13*
G04 #@! TO.P,U2,18*
G04 #@! TO.N,+5V*
X23590990Y14580583D03*
D14*
G04 #@! TD*
G04 #@! TO.N,+5V*
G04 #@! TO.C,U2*
G36*
X22830850Y14951814D02*
X23219759Y15340723D01*
X24351130Y14209352D01*
X23962221Y13820443D01*
X22830850Y14951814D01*
X22830850Y14951814D01*
G37*
D13*
G04 #@! TO.P,U2,19*
G04 #@! TO.N,Net-(U2-Pad19)*
X24156676Y15146268D03*
D14*
G04 #@! TD*
G04 #@! TO.N,Net-(U2-Pad19)*
G04 #@! TO.C,U2*
G36*
X23396536Y15517499D02*
X23785445Y15906408D01*
X24916816Y14775037D01*
X24527907Y14386128D01*
X23396536Y15517499D01*
X23396536Y15517499D01*
G37*
D13*
G04 #@! TO.P,U2,20*
G04 #@! TO.N,+5V*
X24722361Y15711953D03*
D14*
G04 #@! TD*
G04 #@! TO.N,+5V*
G04 #@! TO.C,U2*
G36*
X23962221Y16083184D02*
X24351130Y16472093D01*
X25482501Y15340722D01*
X25093592Y14951813D01*
X23962221Y16083184D01*
X23962221Y16083184D01*
G37*
D13*
G04 #@! TO.P,U2,21*
G04 #@! TO.N,GND*
X25288047Y16277639D03*
D14*
G04 #@! TD*
G04 #@! TO.N,GND*
G04 #@! TO.C,U2*
G36*
X24527907Y16648870D02*
X24916816Y17037779D01*
X26048187Y15906408D01*
X25659278Y15517499D01*
X24527907Y16648870D01*
X24527907Y16648870D01*
G37*
D13*
G04 #@! TO.P,U2,22*
G04 #@! TO.N,Net-(U2-Pad22)*
X25853732Y16843324D03*
D14*
G04 #@! TD*
G04 #@! TO.N,Net-(U2-Pad22)*
G04 #@! TO.C,U2*
G36*
X25093592Y17214555D02*
X25482501Y17603464D01*
X26613872Y16472093D01*
X26224963Y16083184D01*
X25093592Y17214555D01*
X25093592Y17214555D01*
G37*
D13*
G04 #@! TO.P,U2,23*
G04 #@! TO.N,Net-(U2-Pad23)*
X26419417Y17409010D03*
D14*
G04 #@! TD*
G04 #@! TO.N,Net-(U2-Pad23)*
G04 #@! TO.C,U2*
G36*
X25659277Y17780241D02*
X26048186Y18169150D01*
X27179557Y17037779D01*
X26790648Y16648870D01*
X25659277Y17780241D01*
X25659277Y17780241D01*
G37*
D13*
G04 #@! TO.P,U2,24*
G04 #@! TO.N,HALL*
X26985103Y17974695D03*
D14*
G04 #@! TD*
G04 #@! TO.N,HALL*
G04 #@! TO.C,U2*
G36*
X26224963Y18345926D02*
X26613872Y18734835D01*
X27745243Y17603464D01*
X27356334Y17214555D01*
X26224963Y18345926D01*
X26224963Y18345926D01*
G37*
D13*
G04 #@! TO.P,U2,25*
G04 #@! TO.N,Net-(U2-Pad25)*
X26985103Y20025305D03*
D14*
G04 #@! TD*
G04 #@! TO.N,Net-(U2-Pad25)*
G04 #@! TO.C,U2*
G36*
X26613872Y19265165D02*
X26224963Y19654074D01*
X27356334Y20785445D01*
X27745243Y20396536D01*
X26613872Y19265165D01*
X26613872Y19265165D01*
G37*
D13*
G04 #@! TO.P,U2,26*
G04 #@! TO.N,Net-(U2-Pad26)*
X26419417Y20590990D03*
D14*
G04 #@! TD*
G04 #@! TO.N,Net-(U2-Pad26)*
G04 #@! TO.C,U2*
G36*
X26048186Y19830850D02*
X25659277Y20219759D01*
X26790648Y21351130D01*
X27179557Y20962221D01*
X26048186Y19830850D01*
X26048186Y19830850D01*
G37*
D13*
G04 #@! TO.P,U2,27*
G04 #@! TO.N,Net-(U2-Pad27)*
X25853732Y21156676D03*
D14*
G04 #@! TD*
G04 #@! TO.N,Net-(U2-Pad27)*
G04 #@! TO.C,U2*
G36*
X25482501Y20396536D02*
X25093592Y20785445D01*
X26224963Y21916816D01*
X26613872Y21527907D01*
X25482501Y20396536D01*
X25482501Y20396536D01*
G37*
D13*
G04 #@! TO.P,U2,28*
G04 #@! TO.N,VMOT*
X25288047Y21722361D03*
D14*
G04 #@! TD*
G04 #@! TO.N,VMOT*
G04 #@! TO.C,U2*
G36*
X24916816Y20962221D02*
X24527907Y21351130D01*
X25659278Y22482501D01*
X26048187Y22093592D01*
X24916816Y20962221D01*
X24916816Y20962221D01*
G37*
D13*
G04 #@! TO.P,U2,29*
G04 #@! TO.N,USB_RESET*
X24722361Y22288047D03*
D14*
G04 #@! TD*
G04 #@! TO.N,USB_RESET*
G04 #@! TO.C,U2*
G36*
X24351130Y21527907D02*
X23962221Y21916816D01*
X25093592Y23048187D01*
X25482501Y22659278D01*
X24351130Y21527907D01*
X24351130Y21527907D01*
G37*
D13*
G04 #@! TO.P,U2,30*
G04 #@! TO.N,RXD*
X24156676Y22853732D03*
D14*
G04 #@! TD*
G04 #@! TO.N,RXD*
G04 #@! TO.C,U2*
G36*
X23785445Y22093592D02*
X23396536Y22482501D01*
X24527907Y23613872D01*
X24916816Y23224963D01*
X23785445Y22093592D01*
X23785445Y22093592D01*
G37*
D13*
G04 #@! TO.P,U2,31*
G04 #@! TO.N,TXD*
X23590990Y23419417D03*
D14*
G04 #@! TD*
G04 #@! TO.N,TXD*
G04 #@! TO.C,U2*
G36*
X23219759Y22659277D02*
X22830850Y23048186D01*
X23962221Y24179557D01*
X24351130Y23790648D01*
X23219759Y22659277D01*
X23219759Y22659277D01*
G37*
D13*
G04 #@! TO.P,U2,32*
G04 #@! TO.N,Net-(U2-Pad32)*
X23025305Y23985103D03*
D14*
G04 #@! TD*
G04 #@! TO.N,Net-(U2-Pad32)*
G04 #@! TO.C,U2*
G36*
X22654074Y23224963D02*
X22265165Y23613872D01*
X23396536Y24745243D01*
X23785445Y24356334D01*
X22654074Y23224963D01*
X22654074Y23224963D01*
G37*
D15*
G04 #@! TO.P,U3,1*
G04 #@! TO.N,GND*
X40850000Y22950000D03*
G04 #@! TO.P,U3,2*
G04 #@! TO.N,RXD*
X40850000Y21670000D03*
G04 #@! TO.P,U3,3*
G04 #@! TO.N,TXD*
X40850000Y20410000D03*
G04 #@! TO.P,U3,4*
G04 #@! TO.N,Net-(C7-Pad1)*
X40850000Y19140000D03*
G04 #@! TO.P,U3,5*
G04 #@! TO.N,/UD+*
X40850000Y17860000D03*
G04 #@! TO.P,U3,6*
G04 #@! TO.N,/UD-*
X40850000Y16590000D03*
G04 #@! TO.P,U3,7*
G04 #@! TO.N,Net-(U2-Pad12)*
X40850000Y15330000D03*
G04 #@! TO.P,U3,8*
G04 #@! TO.N,Net-(U3-Pad8)*
X40850000Y14050000D03*
G04 #@! TO.P,U3,9*
G04 #@! TO.N,Net-(U3-Pad9)*
X47150000Y14050000D03*
G04 #@! TO.P,U3,10*
G04 #@! TO.N,Net-(U3-Pad10)*
X47150000Y15330000D03*
G04 #@! TO.P,U3,11*
G04 #@! TO.N,Net-(U3-Pad11)*
X47150000Y16590000D03*
G04 #@! TO.P,U3,12*
G04 #@! TO.N,Net-(U3-Pad12)*
X47150000Y17860000D03*
G04 #@! TO.P,U3,13*
G04 #@! TO.N,Net-(C9-Pad2)*
X47150000Y19140000D03*
G04 #@! TO.P,U3,14*
G04 #@! TO.N,Net-(U3-Pad14)*
X47150000Y20410000D03*
G04 #@! TO.P,U3,15*
G04 #@! TO.N,Net-(U3-Pad15)*
X47150000Y21670000D03*
G04 #@! TO.P,U3,16*
G04 #@! TO.N,+5V*
X47150000Y22950000D03*
G04 #@! TD*
D16*
G04 #@! TO.P,J3,1*
G04 #@! TO.N,+VDC*
X52800000Y34700000D03*
D17*
G04 #@! TO.P,J3,2*
X57880000Y34700000D03*
G04 #@! TD*
G04 #@! TO.P,J2,4*
G04 #@! TO.N,+5V*
X34260000Y5400000D03*
D16*
G04 #@! TO.P,J2,1*
G04 #@! TO.N,GND*
X49500000Y5400000D03*
D17*
G04 #@! TO.P,J2,3*
G04 #@! TO.N,+5V*
X39340000Y5400000D03*
G04 #@! TO.P,J2,2*
G04 #@! TO.N,HALL*
X44420000Y5400000D03*
G04 #@! TD*
G04 #@! TO.P,J1,2*
G04 #@! TO.N,CTRL_DOWN*
X14580000Y34700000D03*
G04 #@! TO.P,J1,3*
G04 #@! TO.N,GND*
X19660000Y34700000D03*
D16*
G04 #@! TO.P,J1,1*
X9500000Y34700000D03*
D17*
G04 #@! TO.P,J1,4*
G04 #@! TO.N,CTRL_UP*
X24740000Y34700000D03*
G04 #@! TD*
D11*
G04 #@! TO.P,C2,1*
G04 #@! TO.N,GND*
X26900000Y12100000D03*
G04 #@! TO.P,C2,2*
G04 #@! TO.N,+5V*
X24900000Y12100000D03*
G04 #@! TD*
G04 #@! TO.P,R2,2*
G04 #@! TO.N,USB_RESET*
X36100000Y12600000D03*
G04 #@! TO.P,R2,1*
G04 #@! TO.N,+5V*
X34100000Y12600000D03*
G04 #@! TD*
G04 #@! TO.P,R1,1*
G04 #@! TO.N,+5V*
X34100000Y10700000D03*
G04 #@! TO.P,R1,2*
G04 #@! TO.N,HALL*
X36100000Y10700000D03*
G04 #@! TD*
G04 #@! TO.P,C9,2*
G04 #@! TO.N,Net-(C9-Pad2)*
X43000000Y11800000D03*
G04 #@! TO.P,C9,1*
G04 #@! TO.N,USB_RESET*
X41000000Y11800000D03*
G04 #@! TD*
D18*
G04 #@! TO.P,C8,1*
G04 #@! TO.N,GND*
X49700000Y20500000D03*
G04 #@! TO.P,C8,2*
G04 #@! TO.N,+5V*
X49700000Y18500000D03*
G04 #@! TD*
D11*
G04 #@! TO.P,C7,2*
G04 #@! TO.N,GND*
X36500000Y19200000D03*
G04 #@! TO.P,C7,1*
G04 #@! TO.N,Net-(C7-Pad1)*
X38500000Y19200000D03*
G04 #@! TD*
G04 #@! TO.P,C6,1*
G04 #@! TO.N,GND*
X10000000Y15300000D03*
G04 #@! TO.P,C6,2*
G04 #@! TO.N,Net-(C6-Pad2)*
X12000000Y15300000D03*
G04 #@! TD*
G04 #@! TO.P,C4,2*
G04 #@! TO.N,GND*
X28300000Y14100000D03*
G04 #@! TO.P,C4,1*
G04 #@! TO.N,+5V*
X26300000Y14100000D03*
G04 #@! TD*
G04 #@! TO.P,C3,1*
G04 #@! TO.N,+5V*
X16800000Y24800000D03*
G04 #@! TO.P,C3,2*
G04 #@! TO.N,GND*
X14800000Y24800000D03*
G04 #@! TD*
G04 #@! TO.P,C5,2*
G04 #@! TO.N,Net-(C5-Pad2)*
X10300000Y29500000D03*
G04 #@! TO.P,C5,1*
G04 #@! TO.N,GND*
X12300000Y29500000D03*
G04 #@! TD*
D19*
G04 #@! TO.P,C1,1*
G04 #@! TO.N,+5V*
X58675000Y19000000D03*
G04 #@! TO.P,C1,2*
G04 #@! TO.N,GND*
X52325000Y19000000D03*
D20*
G04 #@! TO.P,C1,1*
G04 #@! TO.N,+5V*
X56770000Y19000000D03*
G04 #@! TO.P,C1,2*
G04 #@! TO.N,GND*
X54230000Y19000000D03*
G04 #@! TD*
D21*
G04 #@! TO.P,Y1,2*
G04 #@! TO.N,Net-(C6-Pad2)*
X10300000Y19920000D03*
G04 #@! TO.P,Y1,1*
G04 #@! TO.N,Net-(C5-Pad2)*
X10300000Y24800000D03*
G04 #@! TD*
D22*
G04 #@! TO.P,J6,6*
G04 #@! TO.N,GND*
X40300000Y30600000D03*
D23*
G04 #@! TO.P,J6,5*
X42702060Y26820040D03*
G04 #@! TO.P,J6,4*
G04 #@! TO.N,Net-(J6-Pad4)*
X43352300Y26820040D03*
G04 #@! TO.P,J6,3*
G04 #@! TO.N,/UD+*
X44000000Y26820040D03*
G04 #@! TO.P,J6,2*
G04 #@! TO.N,/UD-*
X44647700Y26820040D03*
G04 #@! TO.P,J6,1*
G04 #@! TO.N,Net-(J6-Pad1)*
X45297940Y26820040D03*
D22*
G04 #@! TO.P,J6,6*
G04 #@! TO.N,GND*
X47700000Y27100000D03*
X40300000Y27100000D03*
X47700000Y30600000D03*
G04 #@! TD*
D24*
G04 #@! TO.N,*
X3000000Y36000000D03*
X3000000Y3000000D03*
X64000000Y36000000D03*
X64000000Y3000000D03*
D25*
G04 #@! TO.N,GND*
X34125312Y19525312D03*
X29400000Y11900000D03*
X36800000Y27100000D03*
X36800000Y23100000D03*
X14700000Y29100000D03*
X53600000Y2000000D03*
G04 #@! TO.N,+5V*
X16700000Y27000000D03*
X32158571Y13110408D03*
G04 #@! TO.N,USB_RESET*
X38400000Y14100000D03*
X28780226Y23486734D03*
G04 #@! TO.N,HALL*
X38200000Y10900000D03*
X30100000Y16200000D03*
G04 #@! TO.N,+VDC*
X34400000Y32600000D03*
X53000000Y30000000D03*
G04 #@! TO.N,Net-(U2-Pad12)*
X16900000Y13700000D03*
X32892857Y15950010D03*
G04 #@! TO.N,L_EN*
X7500000Y13600000D03*
X14628575Y12319200D03*
G04 #@! TO.N,VMOT*
X29600000Y21000002D03*
X29300000Y27100000D03*
G04 #@! TD*
D26*
G04 #@! TO.N,GND*
X40579960Y26820040D02*
X40300000Y27100000D01*
X42702060Y26820040D02*
X40579960Y26820040D01*
X27816826Y15633174D02*
X28300000Y15150000D01*
X25288047Y16277639D02*
X25932512Y15633174D01*
X28300000Y15150000D02*
X28300000Y14100000D01*
X25932512Y15633174D02*
X27816826Y15633174D01*
X18067488Y22366826D02*
X18075558Y22358756D01*
X16878172Y22366826D02*
X18067488Y22366826D01*
X18075558Y22358756D02*
X18711953Y21722361D01*
X14800000Y24800000D02*
X14800000Y24444998D01*
X14800000Y24444998D02*
X16878172Y22366826D01*
X54230000Y19000000D02*
X52325000Y19000000D01*
X50825000Y20500000D02*
X49700000Y20500000D01*
X52325000Y19000000D02*
X50825000Y20500000D01*
X28300000Y13500000D02*
X28300000Y14100000D01*
X26900000Y12100000D02*
X28300000Y13500000D01*
X10200000Y37300000D02*
X9500000Y36600000D01*
X17060000Y37300000D02*
X10200000Y37300000D01*
X9500000Y36600000D02*
X9500000Y34700000D01*
X19660000Y34700000D02*
X17060000Y37300000D01*
X9500000Y34700000D02*
X9500000Y32800000D01*
X10500000Y31800000D02*
X12000000Y31800000D01*
X12300000Y31500000D02*
X12300000Y29500000D01*
X12000000Y31800000D02*
X12300000Y31500000D01*
X9755000Y15300000D02*
X7900000Y17155000D01*
X10000000Y15300000D02*
X9755000Y15300000D01*
X7900000Y30600000D02*
X9800000Y32500000D01*
X7900000Y17155000D02*
X7900000Y30600000D01*
X9500000Y32800000D02*
X9800000Y32500000D01*
X9800000Y32500000D02*
X10500000Y31800000D01*
X14000000Y27800000D02*
X12300000Y29500000D01*
X14000000Y26900000D02*
X14000000Y27800000D01*
X14000000Y25600000D02*
X14800000Y24800000D01*
X14000000Y26900000D02*
X14000000Y25600000D01*
X36500000Y19200000D02*
X34450624Y19200000D01*
X34450624Y19200000D02*
X34125312Y19525312D01*
D27*
X55540000Y23900000D02*
X55540000Y26000000D01*
X55540000Y22660000D02*
X55540000Y23900000D01*
X54230000Y19000000D02*
X54230000Y21350000D01*
X54230000Y21350000D02*
X55540000Y22660000D01*
X51640000Y22660000D02*
X55540000Y22660000D01*
X47700000Y27100000D02*
X47700000Y26600000D01*
X40300000Y27100000D02*
X40300000Y30600000D01*
X27100000Y11900000D02*
X26900000Y12100000D01*
X29400000Y11900000D02*
X27100000Y11900000D01*
X40300000Y27100000D02*
X38300000Y27100000D01*
X38300000Y27100000D02*
X36800000Y27100000D01*
X40700000Y23100000D02*
X40850000Y22950000D01*
X36800000Y23100000D02*
X40700000Y23100000D01*
X36700000Y27000000D02*
X36800000Y27100000D01*
X34000000Y27000000D02*
X36700000Y27000000D01*
X14800000Y24800000D02*
X14800000Y29000000D01*
X14800000Y29000000D02*
X14700000Y29100000D01*
X52900000Y2000000D02*
X49500000Y5400000D01*
X53600000Y2000000D02*
X52900000Y2000000D01*
X55840000Y28400000D02*
X55540000Y28100000D01*
X53600000Y2000000D02*
X57100000Y2000000D01*
X61600000Y6500000D02*
X61600000Y26900000D01*
X55540000Y28100000D02*
X55540000Y26000000D01*
X57100000Y2000000D02*
X61600000Y6500000D01*
X61600000Y26900000D02*
X60100000Y28400000D01*
X60100000Y28400000D02*
X55840000Y28400000D01*
X47700000Y30600000D02*
X47700000Y31100000D01*
X50100000Y32400000D02*
X50100000Y24200000D01*
X48600000Y33900000D02*
X50100000Y32400000D01*
X50100000Y24200000D02*
X51640000Y22660000D01*
X36800000Y30700000D02*
X40000000Y33900000D01*
X36800000Y27100000D02*
X36800000Y30700000D01*
X47700000Y26600000D02*
X50100000Y24200000D01*
X40000000Y33900000D02*
X48600000Y33900000D01*
X47700000Y27100000D02*
X47700000Y30600000D01*
D26*
G04 #@! TO.N,Net-(C6-Pad2)*
X12000000Y18220000D02*
X10300000Y19920000D01*
X12000000Y15300000D02*
X12000000Y18220000D01*
X10405305Y20025305D02*
X10300000Y19920000D01*
X17014897Y20025305D02*
X10405305Y20025305D01*
G04 #@! TO.N,Net-(C5-Pad2)*
X13864545Y21235455D02*
X11549999Y23550001D01*
X17580583Y20590990D02*
X16936118Y21235455D01*
X11549999Y23550001D02*
X10300000Y24800000D01*
X16936118Y21235455D02*
X13864545Y21235455D01*
X10300000Y26567766D02*
X10300000Y29500000D01*
X10300000Y24800000D02*
X10300000Y26567766D01*
G04 #@! TO.N,/UD+*
X41900000Y17860000D02*
X44000000Y19960000D01*
X40850000Y17860000D02*
X41900000Y17860000D01*
G04 #@! TO.N,+5V*
X24722361Y15677639D02*
X26300000Y14100000D01*
X24722361Y15711953D02*
X24722361Y15677639D01*
X16800000Y24765686D02*
X19277639Y22288047D01*
X16800000Y24800000D02*
X16800000Y24765686D01*
X58080000Y19595000D02*
X58675000Y19000000D01*
X58080000Y26000000D02*
X58080000Y19595000D01*
X58675000Y19000000D02*
X56770000Y19000000D01*
X48650000Y18500000D02*
X48500000Y18650000D01*
X49700000Y18500000D02*
X48650000Y18500000D01*
X48500000Y18650000D02*
X48500000Y22650000D01*
X48200000Y22950000D02*
X47150000Y22950000D01*
X48500000Y22650000D02*
X48200000Y22950000D01*
X58675000Y18925000D02*
X56150000Y16400000D01*
X58675000Y19000000D02*
X58675000Y18925000D01*
X49700000Y17000000D02*
X49700000Y18500000D01*
X50300000Y16400000D02*
X49700000Y17000000D01*
X24900000Y13271573D02*
X23590990Y14580583D01*
X24900000Y12100000D02*
X24900000Y13271573D01*
X24722361Y15711953D02*
X23934314Y16500000D01*
X23934314Y16500000D02*
X23100000Y16500000D01*
X22954595Y15216978D02*
X23590990Y14580583D01*
X23100000Y16500000D02*
X22946526Y16346526D01*
X22946526Y15225047D02*
X22954595Y15216978D01*
X22946526Y16346526D02*
X22946526Y15225047D01*
X22946526Y18619160D02*
X22946526Y16346526D01*
X19277639Y22288047D02*
X22946526Y18619160D01*
X34100000Y5560000D02*
X34260000Y5400000D01*
X34100000Y10700000D02*
X34100000Y5560000D01*
X34100000Y10700000D02*
X34100000Y12600000D01*
X37218680Y5400000D02*
X34260000Y5400000D01*
X39340000Y5400000D02*
X37218680Y5400000D01*
X39340000Y5400000D02*
X41640000Y3100000D01*
X56150000Y16400000D02*
X51800000Y16400000D01*
X51800000Y16400000D02*
X50300000Y16400000D01*
D27*
X58675000Y25405000D02*
X58080000Y26000000D01*
X58675000Y19000000D02*
X58675000Y25405000D01*
X34260000Y10540000D02*
X34100000Y10700000D01*
X34260000Y5400000D02*
X34260000Y10540000D01*
X39340000Y5400000D02*
X34260000Y5400000D01*
X40839999Y3900001D02*
X41640000Y3100000D01*
X39340000Y5400000D02*
X40839999Y3900001D01*
X41640000Y3100000D02*
X46000000Y3100000D01*
X46610001Y6490001D02*
X56770000Y16650000D01*
X56770000Y16650000D02*
X56770000Y19000000D01*
X46000000Y3100000D02*
X46610001Y3710001D01*
X46610001Y3710001D02*
X46610001Y6490001D01*
X16700000Y24900000D02*
X16800000Y24800000D01*
X16700000Y27000000D02*
X16700000Y24900000D01*
X13340000Y3300000D02*
X11240000Y3300000D01*
X34260000Y5400000D02*
X31239988Y2379988D01*
X14260012Y2379988D02*
X13340000Y3300000D01*
X31239988Y2379988D02*
X14260012Y2379988D01*
X32158571Y12646429D02*
X32158571Y13110408D01*
X32205000Y12600000D02*
X32158571Y12646429D01*
X34100000Y12600000D02*
X32205000Y12600000D01*
D26*
G04 #@! TO.N,Net-(C7-Pad1)*
X38560000Y19140000D02*
X38500000Y19200000D01*
X40850000Y19140000D02*
X38560000Y19140000D01*
G04 #@! TO.N,Net-(C9-Pad2)*
X46100000Y19140000D02*
X47150000Y19140000D01*
X43000000Y11800000D02*
X43000000Y16040000D01*
X43000000Y16040000D02*
X46100000Y19140000D01*
G04 #@! TO.N,USB_RESET*
X41000000Y11800000D02*
X39400000Y11800000D01*
X38600000Y12600000D02*
X36100000Y12600000D01*
X39400000Y11800000D02*
X38600000Y12600000D01*
X36100000Y12600000D02*
X36900000Y12600000D01*
X36900000Y12600000D02*
X38400000Y14100000D01*
X30550002Y13107200D02*
X30790001Y12867201D01*
X30790001Y11232799D02*
X26857202Y7300000D01*
X26180000Y7300000D02*
X24680000Y7300000D01*
X26857202Y7300000D02*
X26180000Y7300000D01*
X31292015Y14500410D02*
X30550002Y13758397D01*
X36100000Y13650000D02*
X35249590Y14500410D01*
X30550002Y13758397D02*
X30550002Y13107200D01*
X35249590Y14500410D02*
X31292015Y14500410D01*
X36100000Y12600000D02*
X36100000Y13650000D01*
X30790001Y12867201D02*
X30790001Y11232799D01*
X27366013Y23486734D02*
X28780226Y23486734D01*
X25921048Y23486734D02*
X27366013Y23486734D01*
X24722361Y22288047D02*
X25921048Y23486734D01*
G04 #@! TO.N,HALL*
X36100000Y10700000D02*
X38000000Y10700000D01*
X38000000Y10700000D02*
X38200000Y10900000D01*
D27*
X38920000Y10900000D02*
X44420000Y5400000D01*
X38200000Y10900000D02*
X38920000Y10900000D01*
D26*
X28759798Y16200000D02*
X30100000Y16200000D01*
X26985103Y17974695D02*
X28759798Y16200000D01*
G04 #@! TO.N,CTRL_DOWN*
X18600000Y30680000D02*
X14580000Y34700000D01*
X20409010Y23419417D02*
X18600000Y25228427D01*
X18600000Y25228427D02*
X18600000Y30680000D01*
G04 #@! TO.N,CTRL_UP*
X20974695Y30934695D02*
X24740000Y34700000D01*
X20974695Y23985103D02*
X20974695Y30934695D01*
D27*
G04 #@! TO.N,+VDC*
X53000000Y34500000D02*
X52800000Y34700000D01*
X57880000Y34700000D02*
X52800000Y34700000D01*
X53000000Y26000000D02*
X53000000Y29300000D01*
X53000000Y29300000D02*
X53000000Y34500000D01*
D26*
X34400000Y29400000D02*
X34000000Y29000000D01*
X34400000Y32600000D02*
X34400000Y29400000D01*
X53000000Y29300000D02*
X53000000Y30000000D01*
G04 #@! TO.N,RXD*
X39800000Y21670000D02*
X39679999Y21549999D01*
X39679999Y21549999D02*
X32774165Y21549999D01*
X29447428Y24876736D02*
X26179680Y24876736D01*
X26179680Y24876736D02*
X24793071Y23490127D01*
X40850000Y21670000D02*
X39800000Y21670000D01*
X32774165Y21549999D02*
X29447428Y24876736D01*
X24793071Y23490127D02*
X24156676Y22853732D01*
G04 #@! TO.N,TXD*
X25638320Y25466747D02*
X29691818Y25466747D01*
X41900000Y20410000D02*
X40850000Y20410000D01*
X41500000Y24500000D02*
X42000000Y24000000D01*
X42000000Y24000000D02*
X42000000Y20510000D01*
X42000000Y20510000D02*
X41900000Y20410000D01*
X29758552Y25400013D02*
X34653987Y25400013D01*
X36946002Y24500000D02*
X41500000Y24500000D01*
X23590990Y23419417D02*
X25638320Y25466747D01*
X36896001Y24550001D02*
X36946002Y24500000D01*
X29691818Y25466747D02*
X29758552Y25400013D01*
X34653987Y25400013D02*
X35503999Y24550001D01*
X35503999Y24550001D02*
X36896001Y24550001D01*
G04 #@! TO.N,Net-(U2-Pad12)*
X16900000Y14465686D02*
X18711953Y16277639D01*
X16900000Y13700000D02*
X16900000Y14465686D01*
X39800000Y15330000D02*
X39179990Y15950010D01*
X34307070Y15950010D02*
X32892857Y15950010D01*
X39179990Y15950010D02*
X34307070Y15950010D01*
X40850000Y15330000D02*
X39800000Y15330000D01*
G04 #@! TO.N,MOSI*
X19200012Y12734756D02*
X19200012Y13371585D01*
X19200012Y13371585D02*
X19772615Y13944188D01*
X18079999Y3269999D02*
X18049999Y3299999D01*
X18049999Y3299999D02*
X18049999Y11584743D01*
X18049999Y11584743D02*
X19200012Y12734756D01*
X21120001Y3269999D02*
X18079999Y3269999D01*
X19772615Y13944188D02*
X20409010Y14580583D01*
X22140000Y4289998D02*
X21120001Y3269999D01*
X22140000Y4760000D02*
X22140000Y4289998D01*
G04 #@! TO.N,MISO*
X19600000Y7300000D02*
X19600000Y8800000D01*
X19600000Y8800000D02*
X20974695Y10174695D01*
X20974695Y10174695D02*
X20974695Y13525988D01*
X20974695Y13525988D02*
X20974695Y14014897D01*
G04 #@! TO.N,SCK*
X22140000Y13129592D02*
X23025305Y14014897D01*
X22140000Y7300000D02*
X22140000Y13129592D01*
G04 #@! TO.N,L_EN*
X7149999Y13249999D02*
X7500000Y13600000D01*
X8700000Y8380000D02*
X7200000Y8380000D01*
X7149999Y8430001D02*
X7149999Y13249999D01*
X7200000Y8380000D02*
X7149999Y8430001D01*
X18146268Y16843324D02*
X16452945Y15150001D01*
X16452945Y15150001D02*
X16203999Y15150001D01*
X14628575Y13574577D02*
X14628575Y12319200D01*
X16203999Y15150001D02*
X14628575Y13574577D01*
G04 #@! TO.N,R_EN*
X18641244Y15075558D02*
X19277639Y15711953D01*
X18550001Y13003999D02*
X18550001Y14984315D01*
X13926002Y8380000D02*
X18550001Y13003999D01*
X11240000Y8380000D02*
X13926002Y8380000D01*
X18550001Y14984315D02*
X18641244Y15075558D01*
G04 #@! TO.N,L_PWM*
X8700000Y12420000D02*
X8980000Y12700000D01*
X8700000Y10920000D02*
X8700000Y12420000D01*
X11740202Y12700000D02*
X17014897Y17974695D01*
X8980000Y12700000D02*
X11740202Y12700000D01*
G04 #@! TO.N,R_PWM*
X16907359Y16772615D02*
X16944188Y16772615D01*
X16944188Y16772615D02*
X17580583Y17409010D01*
X11240000Y11105256D02*
X16907359Y16772615D01*
X11240000Y10920000D02*
X11240000Y11105256D01*
G04 #@! TO.N,/UD+*
X44000000Y19960000D02*
X44000000Y24958348D01*
D28*
X44000000Y24958348D02*
X44000000Y26820040D01*
D26*
G04 #@! TO.N,/UD-*
X41900000Y16590000D02*
X44700000Y19390000D01*
X40850000Y16590000D02*
X41900000Y16590000D01*
X44700000Y19390000D02*
X44700000Y24908588D01*
D28*
X44647700Y24960888D02*
X44647700Y26820040D01*
X44700000Y24908588D02*
X44647700Y24960888D01*
D27*
G04 #@! TO.N,VMOT*
X32000000Y29000000D02*
X32000000Y27000000D01*
D26*
X28600001Y22000001D02*
X29600000Y21000002D01*
X27841244Y22358756D02*
X28199999Y22000001D01*
X25288047Y21722361D02*
X25924442Y22358756D01*
X25924442Y22358756D02*
X27841244Y22358756D01*
X28199999Y22000001D02*
X28600001Y22000001D01*
X31900000Y27100000D02*
X32000000Y27000000D01*
X29300000Y27100000D02*
X31900000Y27100000D01*
G04 #@! TD*
M02*
