G04 #@! TF.GenerationSoftware,KiCad,Pcbnew,5.0.2-bee76a0~70~ubuntu18.04.1*
G04 #@! TF.CreationDate,2019-10-09T06:24:17-07:00*
G04 #@! TF.ProjectId,kazatsky,6b617a61-7473-46b7-992e-6b696361645f,rev?*
G04 #@! TF.SameCoordinates,PX8e18f40PY6516e80*
G04 #@! TF.FileFunction,Copper,L2,Bot*
G04 #@! TF.FilePolarity,Positive*
%FSLAX46Y46*%
G04 Gerber Fmt 4.6, Leading zero omitted, Abs format (unit mm)*
G04 Created by KiCad (PCBNEW 5.0.2-bee76a0~70~ubuntu18.04.1) date Wed 09 Oct 2019 06:24:17 AM PDT*
%MOMM*%
%LPD*%
G01*
G04 APERTURE LIST*
G04 #@! TA.AperFunction,NonConductor*
%ADD10C,0.300000*%
G04 #@! TD*
G04 #@! TA.AperFunction,ComponentPad*
%ADD11R,2.200000X2.200000*%
G04 #@! TD*
G04 #@! TA.AperFunction,ComponentPad*
%ADD12R,3.000000X3.000000*%
G04 #@! TD*
G04 #@! TA.AperFunction,ComponentPad*
%ADD13C,3.000000*%
G04 #@! TD*
G04 #@! TA.AperFunction,ComponentPad*
%ADD14C,2.500000*%
G04 #@! TD*
G04 #@! TA.AperFunction,ComponentPad*
%ADD15O,2.000000X3.000000*%
G04 #@! TD*
G04 #@! TA.AperFunction,ViaPad*
%ADD16C,5.000000*%
G04 #@! TD*
G04 #@! TA.AperFunction,ViaPad*
%ADD17C,2.000000*%
G04 #@! TD*
G04 #@! TA.AperFunction,Conductor*
%ADD18C,1.000000*%
G04 #@! TD*
G04 #@! TA.AperFunction,Conductor*
%ADD19C,0.400000*%
G04 #@! TD*
G04 APERTURE END LIST*
D10*
X4296428Y15571429D02*
X5796428Y15571429D01*
X4867857Y15714286D02*
X4296428Y16142858D01*
X5296428Y16142858D02*
X4725000Y15571429D01*
X4296428Y17428572D02*
X5082142Y17428572D01*
X5225000Y17357143D01*
X5296428Y17214286D01*
X5296428Y16928572D01*
X5225000Y16785715D01*
X4367857Y17428572D02*
X4296428Y17285715D01*
X4296428Y16928572D01*
X4367857Y16785715D01*
X4510714Y16714286D01*
X4653571Y16714286D01*
X4796428Y16785715D01*
X4867857Y16928572D01*
X4867857Y17285715D01*
X4939285Y17428572D01*
X5296428Y18000000D02*
X5296428Y18785715D01*
X4296428Y18000000D01*
X4296428Y18785715D01*
X4296428Y20000000D02*
X5082142Y20000000D01*
X5225000Y19928572D01*
X5296428Y19785715D01*
X5296428Y19500000D01*
X5225000Y19357143D01*
X4367857Y20000000D02*
X4296428Y19857143D01*
X4296428Y19500000D01*
X4367857Y19357143D01*
X4510714Y19285715D01*
X4653571Y19285715D01*
X4796428Y19357143D01*
X4867857Y19500000D01*
X4867857Y19857143D01*
X4939285Y20000000D01*
X5296428Y20500000D02*
X5296428Y21071429D01*
X5796428Y20714286D02*
X4510714Y20714286D01*
X4367857Y20785715D01*
X4296428Y20928572D01*
X4296428Y21071429D01*
X4367857Y21500000D02*
X4296428Y21642858D01*
X4296428Y21928572D01*
X4367857Y22071429D01*
X4510714Y22142858D01*
X4582142Y22142858D01*
X4725000Y22071429D01*
X4796428Y21928572D01*
X4796428Y21714286D01*
X4867857Y21571429D01*
X5010714Y21500000D01*
X5082142Y21500000D01*
X5225000Y21571429D01*
X5296428Y21714286D01*
X5296428Y21928572D01*
X5225000Y22071429D01*
X4296428Y22785715D02*
X5796428Y22785715D01*
X4867857Y22928572D02*
X4296428Y23357143D01*
X5296428Y23357143D02*
X4725000Y22785715D01*
X5296428Y23857143D02*
X4296428Y24214286D01*
X5296428Y24571429D02*
X4296428Y24214286D01*
X3939285Y24071429D01*
X3867857Y24000000D01*
X3796428Y23857143D01*
X1746428Y12428572D02*
X3246428Y12428572D01*
X1817857Y12428572D02*
X1746428Y12285715D01*
X1746428Y12000000D01*
X1817857Y11857143D01*
X1889285Y11785715D01*
X2032142Y11714286D01*
X2460714Y11714286D01*
X2603571Y11785715D01*
X2675000Y11857143D01*
X2746428Y12000000D01*
X2746428Y12285715D01*
X2675000Y12428572D01*
X1817857Y13714286D02*
X1746428Y13571429D01*
X1746428Y13285715D01*
X1817857Y13142858D01*
X1960714Y13071429D01*
X2532142Y13071429D01*
X2675000Y13142858D01*
X2746428Y13285715D01*
X2746428Y13571429D01*
X2675000Y13714286D01*
X2532142Y13785715D01*
X2389285Y13785715D01*
X2246428Y13071429D01*
X1817857Y14357143D02*
X1746428Y14500000D01*
X1746428Y14785715D01*
X1817857Y14928572D01*
X1960714Y15000000D01*
X2032142Y15000000D01*
X2175000Y14928572D01*
X2246428Y14785715D01*
X2246428Y14571429D01*
X2317857Y14428572D01*
X2460714Y14357143D01*
X2532142Y14357143D01*
X2675000Y14428572D01*
X2746428Y14571429D01*
X2746428Y14785715D01*
X2675000Y14928572D01*
X1746428Y15642858D02*
X3246428Y15642858D01*
X2317857Y15785715D02*
X1746428Y16214286D01*
X2746428Y16214286D02*
X2175000Y15642858D01*
X1817857Y18642858D02*
X1746428Y18500000D01*
X1746428Y18214286D01*
X1817857Y18071429D01*
X1889285Y18000000D01*
X2032142Y17928572D01*
X2460714Y17928572D01*
X2603571Y18000000D01*
X2675000Y18071429D01*
X2746428Y18214286D01*
X2746428Y18500000D01*
X2675000Y18642858D01*
X1746428Y19500000D02*
X1817857Y19357143D01*
X1889285Y19285715D01*
X2032142Y19214286D01*
X2460714Y19214286D01*
X2603571Y19285715D01*
X2675000Y19357143D01*
X2746428Y19500000D01*
X2746428Y19714286D01*
X2675000Y19857143D01*
X2603571Y19928572D01*
X2460714Y20000000D01*
X2032142Y20000000D01*
X1889285Y19928572D01*
X1817857Y19857143D01*
X1746428Y19714286D01*
X1746428Y19500000D01*
X2746428Y20642858D02*
X1746428Y20642858D01*
X2603571Y20642858D02*
X2675000Y20714286D01*
X2746428Y20857143D01*
X2746428Y21071429D01*
X2675000Y21214286D01*
X2532142Y21285715D01*
X1746428Y21285715D01*
X2746428Y21785715D02*
X2746428Y22357143D01*
X3246428Y22000000D02*
X1960714Y22000000D01*
X1817857Y22071429D01*
X1746428Y22214286D01*
X1746428Y22357143D01*
X1746428Y22857143D02*
X2746428Y22857143D01*
X2460714Y22857143D02*
X2603571Y22928572D01*
X2675000Y23000000D01*
X2746428Y23142858D01*
X2746428Y23285715D01*
X1746428Y24000000D02*
X1817857Y23857143D01*
X1889285Y23785715D01*
X2032142Y23714286D01*
X2460714Y23714286D01*
X2603571Y23785715D01*
X2675000Y23857143D01*
X2746428Y24000000D01*
X2746428Y24214286D01*
X2675000Y24357143D01*
X2603571Y24428572D01*
X2460714Y24500000D01*
X2032142Y24500000D01*
X1889285Y24428572D01*
X1817857Y24357143D01*
X1746428Y24214286D01*
X1746428Y24000000D01*
X1746428Y25357143D02*
X1817857Y25214286D01*
X1960714Y25142858D01*
X3246428Y25142858D01*
X1746428Y26142858D02*
X1817857Y26000000D01*
X1960714Y25928572D01*
X3246428Y25928572D01*
X1817857Y27285715D02*
X1746428Y27142858D01*
X1746428Y26857143D01*
X1817857Y26714286D01*
X1960714Y26642858D01*
X2532142Y26642858D01*
X2675000Y26714286D01*
X2746428Y26857143D01*
X2746428Y27142858D01*
X2675000Y27285715D01*
X2532142Y27357143D01*
X2389285Y27357143D01*
X2246428Y26642858D01*
X1746428Y28000000D02*
X2746428Y28000000D01*
X2460714Y28000000D02*
X2603571Y28071429D01*
X2675000Y28142858D01*
X2746428Y28285715D01*
X2746428Y28428572D01*
X63964285Y27721429D02*
X63892857Y27792858D01*
X63821428Y27935715D01*
X63821428Y28078572D01*
X63892857Y28221429D01*
X63964285Y28292858D01*
X64107142Y28364286D01*
X64250000Y28364286D01*
X64392857Y28292858D01*
X64464285Y28221429D01*
X64535714Y28078572D01*
X64535714Y27935715D01*
X64464285Y27792858D01*
X64392857Y27721429D01*
X63821428Y27721429D02*
X64392857Y27721429D01*
X64464285Y27650000D01*
X64464285Y27578572D01*
X64392857Y27435715D01*
X64250000Y27364286D01*
X63892857Y27364286D01*
X63678571Y27507143D01*
X63535714Y27721429D01*
X63464285Y28007143D01*
X63535714Y28292858D01*
X63678571Y28507143D01*
X63892857Y28650000D01*
X64178571Y28721429D01*
X64464285Y28650000D01*
X64678571Y28507143D01*
X64821428Y28292858D01*
X64892857Y28007143D01*
X64821428Y27721429D01*
X64678571Y27507143D01*
X64607142Y26078572D02*
X64678571Y26221429D01*
X64678571Y26507143D01*
X64607142Y26650000D01*
X64535714Y26721429D01*
X64392857Y26792858D01*
X63964285Y26792858D01*
X63821428Y26721429D01*
X63750000Y26650000D01*
X63678571Y26507143D01*
X63678571Y26221429D01*
X63750000Y26078572D01*
X64678571Y25221429D02*
X64607142Y25364286D01*
X64535714Y25435715D01*
X64392857Y25507143D01*
X63964285Y25507143D01*
X63821428Y25435715D01*
X63750000Y25364286D01*
X63678571Y25221429D01*
X63678571Y25007143D01*
X63750000Y24864286D01*
X63821428Y24792858D01*
X63964285Y24721429D01*
X64392857Y24721429D01*
X64535714Y24792858D01*
X64607142Y24864286D01*
X64678571Y25007143D01*
X64678571Y25221429D01*
X64678571Y23435715D02*
X63178571Y23435715D01*
X64607142Y23435715D02*
X64678571Y23578572D01*
X64678571Y23864286D01*
X64607142Y24007143D01*
X64535714Y24078572D01*
X64392857Y24150000D01*
X63964285Y24150000D01*
X63821428Y24078572D01*
X63750000Y24007143D01*
X63678571Y23864286D01*
X63678571Y23578572D01*
X63750000Y23435715D01*
X64678571Y22078572D02*
X63178571Y22078572D01*
X64607142Y22078572D02*
X64678571Y22221429D01*
X64678571Y22507143D01*
X64607142Y22650000D01*
X64535714Y22721429D01*
X64392857Y22792858D01*
X63964285Y22792858D01*
X63821428Y22721429D01*
X63750000Y22650000D01*
X63678571Y22507143D01*
X63678571Y22221429D01*
X63750000Y22078572D01*
X64678571Y21364286D02*
X63678571Y21364286D01*
X63178571Y21364286D02*
X63250000Y21435715D01*
X63321428Y21364286D01*
X63250000Y21292858D01*
X63178571Y21364286D01*
X63321428Y21364286D01*
X63678571Y20650000D02*
X64678571Y20650000D01*
X63821428Y20650000D02*
X63750000Y20578572D01*
X63678571Y20435715D01*
X63678571Y20221429D01*
X63750000Y20078572D01*
X63892857Y20007143D01*
X64678571Y20007143D01*
X63678571Y18650000D02*
X64892857Y18650000D01*
X65035714Y18721429D01*
X65107142Y18792858D01*
X65178571Y18935715D01*
X65178571Y19150000D01*
X65107142Y19292858D01*
X64607142Y18650000D02*
X64678571Y18792858D01*
X64678571Y19078572D01*
X64607142Y19221429D01*
X64535714Y19292858D01*
X64392857Y19364286D01*
X63964285Y19364286D01*
X63821428Y19292858D01*
X63750000Y19221429D01*
X63678571Y19078572D01*
X63678571Y18792858D01*
X63750000Y18650000D01*
X63678571Y18150000D02*
X63678571Y17578572D01*
X63178571Y17935715D02*
X64464285Y17935715D01*
X64607142Y17864286D01*
X64678571Y17721429D01*
X64678571Y17578572D01*
X64678571Y16864286D02*
X64607142Y17007143D01*
X64535714Y17078572D01*
X64392857Y17150000D01*
X63964285Y17150000D01*
X63821428Y17078572D01*
X63750000Y17007143D01*
X63678571Y16864286D01*
X63678571Y16650000D01*
X63750000Y16507143D01*
X63821428Y16435715D01*
X63964285Y16364286D01*
X64392857Y16364286D01*
X64535714Y16435715D01*
X64607142Y16507143D01*
X64678571Y16650000D01*
X64678571Y16864286D01*
X63678571Y15721429D02*
X64678571Y15721429D01*
X63821428Y15721429D02*
X63750000Y15650000D01*
X63678571Y15507143D01*
X63678571Y15292858D01*
X63750000Y15150000D01*
X63892857Y15078572D01*
X64678571Y15078572D01*
X64678571Y14364286D02*
X63178571Y14364286D01*
X63750000Y14364286D02*
X63678571Y14221429D01*
X63678571Y13935715D01*
X63750000Y13792858D01*
X63821428Y13721429D01*
X63964285Y13650000D01*
X64392857Y13650000D01*
X64535714Y13721429D01*
X64607142Y13792858D01*
X64678571Y13935715D01*
X64678571Y14221429D01*
X64607142Y14364286D01*
X64607142Y12435715D02*
X64678571Y12578572D01*
X64678571Y12864286D01*
X64607142Y13007143D01*
X64464285Y13078572D01*
X63892857Y13078572D01*
X63750000Y13007143D01*
X63678571Y12864286D01*
X63678571Y12578572D01*
X63750000Y12435715D01*
X63892857Y12364286D01*
X64035714Y12364286D01*
X64178571Y13078572D01*
X64678571Y11078572D02*
X63892857Y11078572D01*
X63750000Y11150000D01*
X63678571Y11292858D01*
X63678571Y11578572D01*
X63750000Y11721429D01*
X64607142Y11078572D02*
X64678571Y11221429D01*
X64678571Y11578572D01*
X64607142Y11721429D01*
X64464285Y11792858D01*
X64321428Y11792858D01*
X64178571Y11721429D01*
X64107142Y11578572D01*
X64107142Y11221429D01*
X64035714Y11078572D01*
X64678571Y10364286D02*
X63678571Y10364286D01*
X63964285Y10364286D02*
X63821428Y10292858D01*
X63750000Y10221429D01*
X63678571Y10078572D01*
X63678571Y9935715D01*
X52921428Y3914286D02*
X54421428Y3914286D01*
X53707142Y3914286D02*
X53707142Y4771429D01*
X52921428Y4771429D02*
X54421428Y4771429D01*
X53350000Y5414286D02*
X53350000Y6128572D01*
X52921428Y5271429D02*
X54421428Y5771429D01*
X52921428Y6271429D01*
X52921428Y7485715D02*
X52921428Y6771429D01*
X54421428Y6771429D01*
X52921428Y8700000D02*
X52921428Y7985715D01*
X54421428Y7985715D01*
X28564285Y33235715D02*
X28492857Y33164286D01*
X28421428Y32950000D01*
X28421428Y32807143D01*
X28492857Y32592858D01*
X28635714Y32450000D01*
X28778571Y32378572D01*
X29064285Y32307143D01*
X29278571Y32307143D01*
X29564285Y32378572D01*
X29707142Y32450000D01*
X29850000Y32592858D01*
X29921428Y32807143D01*
X29921428Y32950000D01*
X29850000Y33164286D01*
X29778571Y33235715D01*
X29921428Y33664286D02*
X29921428Y34521429D01*
X28421428Y34092858D02*
X29921428Y34092858D01*
X28421428Y35878572D02*
X29135714Y35378572D01*
X28421428Y35021429D02*
X29921428Y35021429D01*
X29921428Y35592858D01*
X29850000Y35735715D01*
X29778571Y35807143D01*
X29635714Y35878572D01*
X29421428Y35878572D01*
X29278571Y35807143D01*
X29207142Y35735715D01*
X29135714Y35592858D01*
X29135714Y35021429D01*
X28421428Y37235715D02*
X28421428Y36521429D01*
X29921428Y36521429D01*
X52785714Y28478572D02*
X53285714Y29978572D01*
X53785714Y28478572D01*
X54285714Y29978572D02*
X54285714Y28478572D01*
X54785714Y29550000D01*
X55285714Y28478572D01*
X55285714Y29978572D01*
X56285714Y28478572D02*
X56571428Y28478572D01*
X56714285Y28550000D01*
X56857142Y28692858D01*
X56928571Y28978572D01*
X56928571Y29478572D01*
X56857142Y29764286D01*
X56714285Y29907143D01*
X56571428Y29978572D01*
X56285714Y29978572D01*
X56142857Y29907143D01*
X56000000Y29764286D01*
X55928571Y29478572D01*
X55928571Y28978572D01*
X56000000Y28692858D01*
X56142857Y28550000D01*
X56285714Y28478572D01*
X57357142Y28478572D02*
X58214285Y28478572D01*
X57785714Y29978572D02*
X57785714Y28478572D01*
D11*
G04 #@! TO.P,U1,1*
G04 #@! TO.N,+VDC*
X53000000Y26000000D03*
G04 #@! TO.P,U1,2*
G04 #@! TO.N,GND*
X55540000Y26000000D03*
G04 #@! TO.P,U1,3*
G04 #@! TO.N,+5V*
X58080000Y26000000D03*
G04 #@! TD*
G04 #@! TO.P,J4,1*
G04 #@! TO.N,GND*
X8700000Y3300000D03*
G04 #@! TO.P,J4,2*
G04 #@! TO.N,+5V*
X11240000Y3300000D03*
G04 #@! TO.P,J4,3*
G04 #@! TO.N,Net-(J4-Pad3)*
X8700000Y5840000D03*
G04 #@! TO.P,J4,4*
G04 #@! TO.N,Net-(J4-Pad4)*
X11240000Y5840000D03*
G04 #@! TO.P,J4,5*
G04 #@! TO.N,L_EN*
X8700000Y8380000D03*
G04 #@! TO.P,J4,6*
G04 #@! TO.N,R_EN*
X11240000Y8380000D03*
G04 #@! TO.P,J4,7*
G04 #@! TO.N,L_PWM*
X8700000Y10920000D03*
G04 #@! TO.P,J4,8*
G04 #@! TO.N,R_PWM*
X11240000Y10920000D03*
G04 #@! TD*
G04 #@! TO.P,J5,1*
G04 #@! TO.N,MISO*
X19600000Y7300000D03*
G04 #@! TO.P,J5,2*
G04 #@! TO.N,+5V*
X19600000Y4760000D03*
G04 #@! TO.P,J5,3*
G04 #@! TO.N,SCK*
X22140000Y7300000D03*
G04 #@! TO.P,J5,4*
G04 #@! TO.N,MOSI*
X22140000Y4760000D03*
G04 #@! TO.P,J5,5*
G04 #@! TO.N,USB_RESET*
X24680000Y7300000D03*
G04 #@! TO.P,J5,6*
G04 #@! TO.N,GND*
X24680000Y4760000D03*
G04 #@! TD*
D12*
G04 #@! TO.P,J3,1*
G04 #@! TO.N,+VDC*
X52800000Y34700000D03*
D13*
G04 #@! TO.P,J3,2*
X57880000Y34700000D03*
G04 #@! TD*
G04 #@! TO.P,J2,4*
G04 #@! TO.N,+5V*
X34260000Y5400000D03*
D12*
G04 #@! TO.P,J2,1*
G04 #@! TO.N,GND*
X49500000Y5400000D03*
D13*
G04 #@! TO.P,J2,3*
G04 #@! TO.N,+5V*
X39340000Y5400000D03*
G04 #@! TO.P,J2,2*
G04 #@! TO.N,HALL*
X44420000Y5400000D03*
G04 #@! TD*
G04 #@! TO.P,J1,2*
G04 #@! TO.N,CTRL_DOWN*
X14580000Y34700000D03*
G04 #@! TO.P,J1,3*
G04 #@! TO.N,GND*
X19660000Y34700000D03*
D12*
G04 #@! TO.P,J1,1*
X9500000Y34700000D03*
D13*
G04 #@! TO.P,J1,4*
G04 #@! TO.N,CTRL_UP*
X24740000Y34700000D03*
G04 #@! TD*
D14*
G04 #@! TO.P,Y1,2*
G04 #@! TO.N,Net-(C6-Pad2)*
X10300000Y19920000D03*
G04 #@! TO.P,Y1,1*
G04 #@! TO.N,Net-(C5-Pad2)*
X10300000Y24800000D03*
G04 #@! TD*
D15*
G04 #@! TO.P,J6,6*
G04 #@! TO.N,GND*
X40300000Y30600000D03*
X47700000Y27100000D03*
X40300000Y27100000D03*
X47700000Y30600000D03*
G04 #@! TD*
D16*
G04 #@! TO.N,*
X3000000Y36000000D03*
X3000000Y3000000D03*
X64000000Y36000000D03*
X64000000Y3000000D03*
D17*
G04 #@! TO.N,GND*
X34125312Y19525312D03*
X29400000Y11900000D03*
X36800000Y27100000D03*
X36800000Y23100000D03*
X14700000Y29100000D03*
X53600000Y2000000D03*
G04 #@! TO.N,+5V*
X16700000Y27000000D03*
X32158571Y13110408D03*
G04 #@! TO.N,USB_RESET*
X38400000Y14100000D03*
X28780226Y23486734D03*
G04 #@! TO.N,HALL*
X38200000Y10900000D03*
X30100000Y16200000D03*
G04 #@! TO.N,+VDC*
X34400000Y32600000D03*
X53000000Y30000000D03*
G04 #@! TO.N,Net-(U2-Pad12)*
X16900000Y13700000D03*
X32892857Y15950010D03*
G04 #@! TO.N,L_EN*
X7500000Y13600000D03*
X14628575Y12319200D03*
G04 #@! TO.N,VMOT*
X29600000Y21000002D03*
X29300000Y27100000D03*
G04 #@! TD*
D18*
G04 #@! TO.N,GND*
X23529999Y1509999D02*
X24680000Y2660000D01*
X8700000Y3300000D02*
X8700000Y2397998D01*
X24680000Y2660000D02*
X24680000Y4760000D01*
X8700000Y2397998D02*
X9587999Y1509999D01*
X22800000Y1509999D02*
X48109999Y1509999D01*
X9587999Y1509999D02*
X22800000Y1509999D01*
X22800000Y1509999D02*
X23529999Y1509999D01*
X26780000Y4760000D02*
X29400000Y7380000D01*
X24680000Y4760000D02*
X26780000Y4760000D01*
X29400000Y7380000D02*
X29400000Y11900000D01*
X36800000Y27100000D02*
X36800000Y23100000D01*
X36800000Y22200000D02*
X34125312Y19525312D01*
X36800000Y23100000D02*
X36800000Y22200000D01*
X15699999Y30099999D02*
X35800001Y30099999D01*
X14700000Y29100000D02*
X15699999Y30099999D01*
X36800000Y29100000D02*
X36800000Y27100000D01*
X35800001Y30099999D02*
X36800000Y29100000D01*
X48109999Y1509999D02*
X53109999Y1509999D01*
X53109999Y1509999D02*
X53600000Y2000000D01*
G04 #@! TO.N,+5V*
X18140000Y3300000D02*
X19600000Y4760000D01*
X11240000Y3300000D02*
X18140000Y3300000D01*
X29190001Y14509999D02*
X30758980Y14509999D01*
X16700000Y27000000D02*
X29190001Y14509999D01*
X31158572Y14110407D02*
X32158571Y13110408D01*
X30758980Y14509999D02*
X31158572Y14110407D01*
D19*
G04 #@! TO.N,USB_RESET*
X30194439Y23486734D02*
X28780226Y23486734D01*
X34449978Y18050022D02*
X33615750Y18050022D01*
X33615750Y18050022D02*
X30990003Y20675769D01*
X30990003Y20675769D02*
X30990003Y22691170D01*
X30990003Y22691170D02*
X30194439Y23486734D01*
X38400000Y14100000D02*
X34449978Y18050022D01*
G04 #@! TO.N,HALL*
X31300011Y17400011D02*
X31099999Y17199999D01*
X34342858Y14757142D02*
X34342858Y16646011D01*
X34342858Y16646011D02*
X33588858Y17400011D01*
X33588858Y17400011D02*
X31300011Y17400011D01*
X38200000Y10900000D02*
X34342858Y14757142D01*
X31099999Y17199999D02*
X30100000Y16200000D01*
G04 #@! TO.N,+VDC*
X52000001Y30999999D02*
X53000000Y30000000D01*
X47600000Y35400000D02*
X52000001Y30999999D01*
X34400000Y32600000D02*
X37200000Y35400000D01*
X37200000Y35400000D02*
X47600000Y35400000D01*
G04 #@! TO.N,Net-(U2-Pad12)*
X32892857Y14535797D02*
X33950007Y13478647D01*
X33950007Y11903999D02*
X33046008Y11000000D01*
X30790002Y12056000D02*
X30790002Y12867202D01*
X33950007Y13478647D02*
X33950007Y11903999D01*
X33046008Y11000000D02*
X31846002Y11000000D01*
X30067202Y13590002D02*
X18424211Y13590002D01*
X18424211Y13590002D02*
X18314213Y13700000D01*
X31846002Y11000000D02*
X30790002Y12056000D01*
X30790002Y12867202D02*
X30067202Y13590002D01*
X18314213Y13700000D02*
X16900000Y13700000D01*
X32892857Y15950010D02*
X32892857Y14535797D01*
G04 #@! TO.N,L_EN*
X13347775Y13600000D02*
X13628576Y13319199D01*
X13628576Y13319199D02*
X14628575Y12319200D01*
X7500000Y13600000D02*
X13347775Y13600000D01*
G04 #@! TO.N,VMOT*
X28185787Y21000002D02*
X28100000Y21085789D01*
X29600000Y21000002D02*
X28185787Y21000002D01*
X28100000Y21085789D02*
X27914211Y21085789D01*
X27914211Y21085789D02*
X26900000Y22100000D01*
X26900000Y22100000D02*
X26900000Y24700000D01*
X26900000Y24700000D02*
X29300000Y27100000D01*
G04 #@! TD*
M02*
