M48
; DRILL file {KiCad 5.1.9-73d0e3b20d~88~ubuntu20.04.1} date Sun Feb 28 17:00:44 2021
; FORMAT={-:-/ absolute / metric / decimal}
; #@! TF.CreationDate,2021-02-28T17:00:44-08:00
; #@! TF.GenerationSoftware,Kicad,Pcbnew,5.1.9-73d0e3b20d~88~ubuntu20.04.1
FMAT,2
METRIC
T1C0.400
T2C1.000
T3C1.100
T4C1.500
T5C1.520
T6C3.500
%
G90
G05
T1
X7.5Y13.6
X14.629Y12.319
X19.5Y11.4
X29.8Y10.8
X34.125Y19.525
X34.4Y32.6
X36.7Y17.0
X36.8Y27.1
X36.8Y23.1
X53.0Y30.0
T2
X8.7Y10.92
X8.7Y8.38
X8.7Y5.84
X8.7Y3.3
X11.24Y10.92
X11.24Y8.38
X11.24Y5.84
X11.24Y3.3
T3
X53.0Y26.0
X55.54Y26.0
X58.08Y26.0
T4
X19.54Y5.0
X24.62Y5.0
X29.7Y5.0
X34.78Y5.0
X39.86Y5.0
X44.94Y5.0
X50.02Y5.0
X55.1Y5.0
T5
X9.5Y34.7
X14.58Y34.7
X19.66Y34.7
X24.74Y34.7
X52.8Y34.7
X57.88Y34.7
T6
X3.0Y36.1
X3.0Y3.1
X64.0Y36.1
X64.0Y3.1
T2
G00X40.3Y30.35
M15
G01X40.3Y30.85
M16
G05
G00X40.3Y26.85
M15
G01X40.3Y27.35
M16
G05
G00X47.7Y30.35
M15
G01X47.7Y30.85
M16
G05
G00X47.7Y26.85
M15
G01X47.7Y27.35
M16
G05
T0
M30
