M48
;DRILL file {KiCad 5.0.2-bee76a0~70~ubuntu18.04.1} date Wed 09 Oct 2019 06:24:16 AM PDT
;FORMAT={-:-/ absolute / metric / decimal}
FMAT,2
METRIC,TZ
T1C0.400
T2C0.500
T3C0.800
T4C1.000
T5C1.016
T6C1.100
T7C1.520
T8C3.500
%
G90
G05
T1
X7.5Y13.6
X14.629Y12.319
X14.7Y29.1
X16.7Y27.
X16.9Y13.7
X28.78Y23.487
X29.3Y27.1
X29.4Y11.9
X29.6Y21.
X30.1Y16.2
X32.159Y13.11
X32.893Y15.95
X34.125Y19.525
X34.4Y32.6
X36.8Y27.1
X36.8Y23.1
X38.2Y10.9
X38.4Y14.1
X53.Y30.
X53.6Y2.
T3
X10.3Y24.8
X10.3Y19.92
T4
X8.7Y10.92
X8.7Y8.38
X8.7Y5.84
X8.7Y3.3
X11.24Y10.92
X11.24Y8.38
X11.24Y5.84
X11.24Y3.3
T5
X19.6Y7.3
X19.6Y4.76
X22.14Y7.3
X22.14Y4.76
X24.68Y7.3
X24.68Y4.76
T6
X53.Y26.
X55.54Y26.
X58.08Y26.
T7
X9.5Y34.7
X14.58Y34.7
X19.66Y34.7
X24.74Y34.7
X34.26Y5.4
X39.34Y5.4
X44.42Y5.4
X49.5Y5.4
X52.8Y34.7
X57.88Y34.7
T8
X3.Y36.
X3.Y3.
X64.Y36.
X64.Y3.
T2
X40.3Y30.1G85X40.3Y31.1
G05
X40.3Y26.6G85X40.3Y27.6
G05
X47.7Y30.1G85X47.7Y31.1
G05
X47.7Y26.6G85X47.7Y27.6
G05
T0
M30
